<?xml version="1.0" encoding="UTF-8"?>
<!DOCTYPE svg PUBLIC "-//W3C//DTD SVG 1.1//EN" "http://www.w3.org/Graphics/SVG/1.1/DTD/svg11.dtd">
<svg xmlns="http://www.w3.org/2000/svg" version="1.1" width="789px" height="742px" style="shape-rendering:geometricPrecision; text-rendering:geometricPrecision; image-rendering:optimizeQuality; fill-rule:evenodd; clip-rule:evenodd" xmlns:xlink="http://www.w3.org/1999/xlink">
<g><path style="opacity:1" fill="#000000" d="M -0.5,-0.5 C 262.5,-0.5 525.5,-0.5 788.5,-0.5C 788.5,246.833 788.5,494.167 788.5,741.5C 525.5,741.5 262.5,741.5 -0.5,741.5C -0.5,494.167 -0.5,246.833 -0.5,-0.5 Z"/></g>
<g><path style="opacity:1" fill="#fefefe" d="M 248.5,19.5 C 283.506,19.1668 318.506,19.5001 353.5,20.5C 390.667,108.167 427.833,195.833 465,283.5C 562.006,208.789 659.173,134.623 756.5,61C 635,169.167 513.5,277.333 392,385.5C 386.163,371.983 380.329,358.483 374.5,345C 324.168,344.5 273.834,344.333 223.5,344.5C 214.901,367.29 205.901,389.956 196.5,412.5C 158.171,413.667 119.838,413.833 81.5,413C 137.311,281.88 192.977,150.714 248.5,19.5 Z"/></g>
<g><path style="opacity:1" fill="#000000" d="M 299.5,149.5 C 314.6,185.787 328.933,222.454 342.5,259.5C 313.826,259.833 285.159,259.5 256.5,258.5C 271.036,222.222 285.369,185.889 299.5,149.5 Z"/></g>
<g><path style="opacity:1" fill="#fefefe" d="M 552.5,281.5 C 554.498,379.494 555.164,477.828 554.5,576.5C 616.738,576.831 678.905,576.498 741,575.5C 741.414,575.957 741.914,576.291 742.5,576.5C 743.5,608.16 743.833,639.826 743.5,671.5C 644.167,671.5 544.833,671.5 445.5,671.5C 445.667,587.166 445.5,502.833 445,418.5C 352.565,487.302 260.398,556.468 168.5,626C 167.833,626.667 167.167,626.667 166.5,626C 295.361,511.301 424.028,396.468 552.5,281.5 Z"/></g>
<g><path style="opacity:1" fill="#dbd5d4" d="M 163.5,627.5 C 165.975,627.747 165.975,628.413 163.5,629.5C 162.537,629.03 162.537,628.363 163.5,627.5 Z"/></g>
</svg>
